# xmcd CD database file
#
# Track frame offsets:
#	150
#	12048
#	24280
#	38888
#	52045
#	66593
#	80125
#	95050
#	108265
#	121333
#	134043
#	148758
#	163273
#	176520
#	190340
#	203580
#	217398
#	231068
#	244283
#	259155
#	272333
#	286248
#	302775
#	317018
#	331163
#
# Disc length: 4603 seconds
#
# Revision: 0
# Processed by: cddbd v1.5.2PL0 Copyright (c) Steve Scherf et al.
# Submitted via: CDex 1.51
#
DISCID=7c11f919
DTITLE=Clarence Williams - The Clarence Williams Collection Vol 1, 1927-28
DYEAR=1900
DGENRE=Jazz
TTITLE0=Nobody But My Baby Is Getting My Love
TTITLE1=Candy Lips
TTITLE2=I Wish You Would
TTITLE3=If I Could Be With You
TTITLE4=Cushion Foot Stomp
TTITLE5=Take Your Black Bottom Outside
TTITLE6=Cushion Foot Stomp 2
TTITLE7=Take Your Black Bottom Outside 2
TTITLE8=Black Snake Blues
TTITLE9=Old Folks Shuffle
TTITLE10=Smile Your Blusies Away
TTITLE11=Red Hot Flo
TTITLE12=Baby Won't You Please Come Home
TTITLE13=Close Fit Blues
TTITLE14=Yama Yama Blues
TTITLE15=Church Street Sobbin' Blues
TTITLE16=Sweet Emmaline
TTITLE17=Sweet Emmaline (2)
TTITLE18=Log Cabin Blues
TTITLE19=Shake It Down
TTITLE20=Red River Blues
TTITLE21=Chloe
TTITLE22=Back In Your Own Back Yard
TTITLE23=Lazy Mama
TTITLE24=Mountain City Blues
EXTD=
EXTT0=
EXTT1=
EXTT2=
EXTT3=
EXTT4=
EXTT5=
EXTT6=
EXTT7=
EXTT8=
EXTT9=
EXTT10=
EXTT11=
EXTT12=
EXTT13=
EXTT14=
EXTT15=
EXTT16=
EXTT17=
EXTT18=
EXTT19=
EXTT20=
EXTT21=
EXTT22=
EXTT23=
EXTT24=
PLAYORDER=
